<?xml version="1.0" encoding="UTF-8" standalone="no"?>
<svg
   xmlns:dc="http://purl.org/dc/elements/1.1/"
   xmlns:cc="http://creativecommons.org/ns#"
   xmlns:rdf="http://www.w3.org/1999/02/22-rdf-syntax-ns#"
   xmlns:svg="http://www.w3.org/2000/svg"
   xmlns="http://www.w3.org/2000/svg"
   xmlns:sodipodi="http://sodipodi.sourceforge.net/DTD/sodipodi-0.dtd"
   xmlns:inkscape="http://www.inkscape.org/namespaces/inkscape"
   aria-hidden="true"
   focusable="false"
   data-prefix="fad"
   data-icon="question-circle"
   role="img"
   viewBox="0 0 496 496"
   class="svg-inline--fa fa-question-circle fa-w-16 fa-9x"
   version="1.1"
   id="svg16"
   sodipodi:docname="unknown.svg"
   width="496"
   height="496"
   inkscape:version="1.0.2 (e86c870879, 2021-01-15)">
  <metadata
     id="metadata22">
    <rdf:RDF>
      <cc:Work
         rdf:about="">
        <dc:format>image/svg+xml</dc:format>
        <dc:type
           rdf:resource="http://purl.org/dc/dcmitype/StillImage" />
        <dc:title></dc:title>
      </cc:Work>
    </rdf:RDF>
  </metadata>
  <defs
     id="defs20" />
  <sodipodi:namedview
     pagecolor="#ffffff"
     bordercolor="#666666"
     borderopacity="1"
     objecttolerance="10"
     gridtolerance="10"
     guidetolerance="10"
     inkscape:pageopacity="0"
     inkscape:pageshadow="2"
     inkscape:window-width="1571"
     inkscape:window-height="1041"
     id="namedview18"
     showgrid="false"
     fit-margin-top="0"
     fit-margin-left="0"
     fit-margin-right="0"
     fit-margin-bottom="0"
     inkscape:zoom="1.5039062"
     inkscape:cx="248"
     inkscape:cy="248"
     inkscape:window-x="1455"
     inkscape:window-y="215"
     inkscape:window-maximized="0"
     inkscape:current-layer="svg16" />
  <g
     class="fa-group"
     id="g14"
     transform="translate(-8,-8)">
    <path
       fill="currentColor"
       d="M 256,8 C 119,8 8,119.08 8,256 8,392.92 119,504 256,504 393,504 504,393 504,256 504,119 393,8 256,8 Z m 0,422 a 46,46 0 1 1 46,-46 46.05,46.05 0 0 1 -46,46 z M 296,298.67 V 300 a 12,12 0 0 1 -12,12 h -56 a 12,12 0 0 1 -12,-12 v -4 c 0,-41.06 31.13,-57.47 54.65,-70.66 20.17,-11.31 32.54,-19 32.54,-34 0,-19.82 -25.27,-33 -45.7,-33 -27.19,0 -39.44,13.14 -57.3,35.79 a 12,12 0 0 1 -16.67,2.13 L 148.82,170 a 12,12 0 0 1 -2.71,-16.26 C 173.4,113 208.16,90 262.66,90 319,90 379.19,134 379.19,192 379.19,269 296,270.21 296,298.67 Z"
       class="fa-secondary"
       id="path10" />
    <path
       fill="currentColor"
       d="m 256,338 a 46,46 0 1 0 46,46 46,46 0 0 0 -46,-46 z m 6.66,-248 c -54.5,0 -89.26,23 -116.55,63.76 a 12,12 0 0 0 2.71,16.24 l 34.7,26.31 a 12,12 0 0 0 16.67,-2.13 c 17.86,-22.65 30.11,-35.79 57.3,-35.79 20.43,0 45.7,13.14 45.7,33 0,15 -12.37,22.66 -32.54,34 C 247.13,238.53 216,254.94 216,296 v 4 a 12,12 0 0 0 12,12 h 56 a 12,12 0 0 0 12,-12 v -1.33 C 296,270.21 379.19,269 379.19,192 379.19,134 319,90 262.66,90 Z"
       class="fa-primary"
       id="path12" />
  </g>
</svg>
